<svg xmlns="http://www.w3.org/2000/svg" viewBox="0 0 64 64">
  <rect width="64" height="64" rx="14" fill="#ff4500" />
  <path fill="#fff" d="M32 16c2.2 0 4 1.8 4 4 0 .6-.1 1.2-.4 1.7 2.6.4 5 1.4 7 2.8l3.4-2c.7-.4 1.6-.2 2 .5.4.7.2 1.6-.5 2l-2.7 1.6c1.4 1.6 2.4 3.5 2.7 5.5h.5c1.1 0 2 .9 2 2s-.9 2-2 2h-1.1c-.6 4-3.7 7.3-7.7 8.5-3.6 1.1-7.6 1.1-11.2 0-4-1.2-7.1-4.5-7.7-8.5H18c-1.1 0-2-.9-2-2s.9-2 2-2h.5c.3-2 1.3-3.9 2.7-5.5L18.5 25c-.7-.4-.9-1.3-.5-2 .4-.7 1.3-.9 2-.5l3.4 2c2-1.4 4.4-2.4 7-2.8-.2-.5-.4-1.1-.4-1.7 0-2.2 1.8-4 4-4Zm-8 16a2 2 0 1 0 0 4 2 2 0 0 0 0-4Zm16 0a2 2 0 1 0 0 4 2 2 0 0 0 0-4Zm-13.7 6.5c-.4.5-.3 1.2.2 1.6 1.6 1.2 3.5 1.8 5.5 1.8s3.9-.6 5.5-1.8c.5-.4.6-1.1.2-1.6-.4-.5-1.1-.6-1.6-.2-1.2.9-2.6 1.4-4.1 1.4s-2.9-.5-4.1-1.4c-.5-.4-1.2-.3-1.6.2Z" />
</svg>
